<?xml version="1.0" encoding="UTF-8" standalone="no"?>
<!-- Created with Inkscape (http://www.inkscape.org/) -->

<svg
   width="1100"
   height="300"
   viewBox="0 0 1100 300"
   version="1.1"
   id="svg1"
   xml:space="preserve"
   inkscape:version="1.3.2 (091e20e, 2023-11-25, custom)"
   sodipodi:docname="banner.svg"
   inkscape:export-filename="banner.png"
   inkscape:export-xdpi="96"
   inkscape:export-ydpi="96"
   xmlns:inkscape="http://www.inkscape.org/namespaces/inkscape"
   xmlns:sodipodi="http://sodipodi.sourceforge.net/DTD/sodipodi-0.dtd"
   xmlns:xlink="http://www.w3.org/1999/xlink"
   xmlns="http://www.w3.org/2000/svg"
   xmlns:svg="http://www.w3.org/2000/svg"><sodipodi:namedview
     id="namedview1"
     pagecolor="#ffffff"
     bordercolor="#000000"
     borderopacity="0.25"
     inkscape:showpageshadow="2"
     inkscape:pageopacity="0.0"
     inkscape:pagecheckerboard="0"
     inkscape:deskcolor="#d1d1d1"
     inkscape:document-units="mm"
     showguides="true"
     inkscape:zoom="0.51717104"
     inkscape:cx="622.61801"
     inkscape:cy="93.779421"
     inkscape:window-width="1920"
     inkscape:window-height="1017"
     inkscape:window-x="-8"
     inkscape:window-y="-8"
     inkscape:window-maximized="1"
     inkscape:current-layer="layer1" /><defs
     id="defs1"><linearGradient
       id="linearGradient8"
       inkscape:collect="always"><stop
         style="stop-color:#003770;stop-opacity:1;"
         offset="0"
         id="stop8" /><stop
         style="stop-color:#002a55;stop-opacity:1;"
         offset="1"
         id="stop9" /></linearGradient><filter
       style="color-interpolation-filters:sRGB"
       inkscape:label="Drop Shadow"
       id="filter4"
       x="-0.0065454547"
       y="-0.071999997"
       width="1.0130908"
       height="1.204"><feFlood
         result="flood"
         in="SourceGraphic"
         flood-opacity="0.501961"
         flood-color="rgb(0,0,0)"
         id="feFlood3" /><feGaussianBlur
         result="blur"
         in="SourceGraphic"
         stdDeviation="3.000000"
         id="feGaussianBlur3" /><feOffset
         result="offset"
         in="blur"
         dx="0.000000"
         dy="6.000000"
         id="feOffset3" /><feComposite
         result="comp1"
         operator="in"
         in="flood"
         in2="offset"
         id="feComposite3" /><feComposite
         result="comp2"
         operator="over"
         in="SourceGraphic"
         in2="comp1"
         id="feComposite4" /></filter><linearGradient
       inkscape:collect="always"
       xlink:href="#linearGradient8"
       id="linearGradient9"
       x1="0"
       y1="150"
       x2="1100"
       y2="150"
       gradientUnits="userSpaceOnUse" /></defs><g
     inkscape:label="Camada 1"
     inkscape:groupmode="layer"
     id="layer1"><rect
       style="fill:url(#linearGradient9);fill-opacity:1;fill-rule:evenodd;stroke:none;stroke-width:39.3674;stroke-linecap:round;paint-order:stroke fill markers"
       id="rect4"
       width="1100"
       height="300"
       x="0"
       y="0"
       inkscape:label="fundo azul"
       sodipodi:insensitive="true" /><g
       inkscape:label="globo fundo"
       id="layer1-0"
       transform="matrix(0.26122725,0,0,0.26122723,-103.05122,-55.269875)"
       style="opacity:0.2"><path
         id="circle237"
         style="display:inline;opacity:1;fill:#ffffff;fill-opacity:1;fill-rule:evenodd;stroke-width:19.1338;stroke-linecap:round;paint-order:stroke fill markers"
         d="m 988.5293,158.60156 a 775.2359,775.2359 0 0 1 67.0703,3.07617 775.2359,775.2359 0 0 0 -67.0703,-3.07617 z m 69.0508,3.22266 a 775.2359,775.2359 0 0 1 67.2637,9.08398 775.2359,775.2359 0 0 0 -67.2637,-9.08398 z m 67.2637,9.08398 H 857.90234 a 775.2359,775.2359 0 0 0 -0.002,0 775.2359,775.2359 0 0 0 -23.56836,5.12696 h 316.73642 a 775.2359,775.2359 0 0 0 -26.2207,-5.12696 z m 26.2246,5.12696 a 775.2359,775.2359 0 0 1 90.8808,25.32422 775.2359,775.2359 0 0 0 -90.8808,-25.32422 z M 857.90234,170.9082 a 775.2359,775.2359 0 0 1 45.16211,-6.19336 775.2359,775.2359 0 0 0 -45.16211,6.19336 z m -23.57226,5.12696 a 775.2359,775.2359 0 0 0 -94.66016,25.32617 775.2359,775.2359 0 0 1 94.66016,-25.32617 z m -94.66016,25.32617 a 775.2359,775.2359 0 0 0 -15.04492,5.61133 h 532.9863 a 775.2359,775.2359 0 0 0 -15.6504,-5.60743 775.2359,775.2359 0 0 0 -0.01,-0.004 z m 517.94138,5.61133 a 775.2359,775.2359 0 0 1 57.4453,23.87695 775.2359,775.2359 0 0 0 -57.4453,-23.87695 z m 57.4453,23.87695 H 662.47266 a 775.2359,775.2359 0 0 0 -0.002,0 775.2359,775.2359 0 0 0 -12.04297,6.57617 h 678.28321 a 775.2359,775.2359 0 0 0 -13.6504,-6.57617 z m 13.6543,6.57617 a 775.2359,775.2359 0 0 1 44.5371,23.63477 775.2359,775.2359 0 0 0 -44.5371,-23.63477 z m 44.5371,23.63477 H 607.14453 a 775.2359,775.2359 0 0 0 -4.85156,2.64843 775.2359,775.2359 0 0 0 -8.08399,4.41407 h 791.50582 a 775.2359,775.2359 0 0 0 -1.0898,-0.61719 775.2359,775.2359 0 0 0 -11.377,-6.44531 z m 12.4668,7.0625 a 775.2359,775.2359 0 0 1 35.3497,22.42383 775.2359,775.2359 0 0 0 -35.3497,-22.42383 z M 662.47266,230.84961 a 775.2359,775.2359 0 0 1 62.15234,-23.87695 775.2359,775.2359 0 0 0 -62.15234,23.87695 z m -68.27149,37.2793 a 775.2359,775.2359 0 0 0 -36.66015,22.41992 775.2359,775.2359 0 0 1 36.66015,-22.41992 z m -36.66015,22.41992 a 775.2359,775.2359 0 0 0 -3.66211,2.74023 775.2359,775.2359 0 0 0 -6.09375,4.5625 h 883.65234 a 775.2359,775.2359 0 0 0 -10.3691,-7.30273 z m 873.91208,7.31445 a 775.2359,775.2359 0 0 1 30.8672,22.65234 775.2359,775.2359 0 0 0 -30.8672,-22.65234 z m -913.94919,22.65625 a 775.2359,775.2359 0 0 0 -11.04688,8.26953 h 966.46487 a 775.2359,775.2359 0 0 0 -10.5957,-8.26953 z m 955.41799,8.26953 a 775.2359,775.2359 0 0 1 25.2832,21.20117 775.2359,775.2359 0 0 0 -25.2832,-21.20117 z m -966.49221,0.0195 a 775.2359,775.2359 0 0 0 -27.625,21.19727 775.2359,775.2359 0 0 1 27.625,-21.19727 z m -27.625,21.19727 a 775.2359,775.2359 0 0 0 -8.75391,8.75391 H 1508.373 a 775.2359,775.2359 0 0 0 -10.1484,-8.75391 z m 1029.57421,8.75976 a 775.2359,775.2359 0 0 1 22.8242,21.66211 775.2359,775.2359 0 0 0 -22.8242,-21.66211 z m 22.8242,21.66211 H 448.38281 a 775.2359,775.2359 0 0 0 -9.4375,9.4375 H 1540.7031 a 775.2359,775.2359 0 0 0 0,-0.002 775.2359,775.2359 0 0 0 -9.4981,-9.43555 z M 419.49805,409.3125 a 775.2359,775.2359 0 0 0 -10.28907,10.28906 H 1568.4434 a 775.2359,775.2359 0 0 0 -9.2207,-10.28515 775.2359,775.2359 0 0 0 0,-0.004 z m -10.28907,10.28906 a 775.2359,775.2359 0 0 0 -16.9746,20.46875 775.2359,775.2359 0 0 1 16.9746,-20.46875 z m -16.97656,20.47266 a 775.2359,775.2359 0 0 0 -3.76562,5.0293 775.2359,775.2359 0 0 0 -4.32227,5.77539 H 1594.6953 a 775.2359,775.2359 0 0 0 -8.5879,-10.79883 775.2359,775.2359 0 0 0 0,-0.006 z m -21.49414,28.71289 a 775.2359,775.2359 0 0 0 -8.59961,11.48828 H 1617.0098 a 775.2359,775.2359 0 0 0 -0.012,-0.0156 775.2359,775.2359 0 0 0 -8.3203,-11.46485 775.2359,775.2359 0 0 0 -0.01,-0.008 z m -8.59961,11.48828 a 775.2359,775.2359 0 0 0 -0.002,0 775.2359,775.2359 0 0 0 -13.91602,18.5918 775.2359,775.2359 0 0 1 13.91797,-18.5918 z m -13.91797,18.5918 a 775.2359,775.2359 0 0 0 -9.11914,12.17969 775.2359,775.2359 0 0 0 -0.12109,0.1621 H 1638.2227 a 775.2359,775.2359 0 0 0 -8.1192,-12.34179 z m -9.24023,12.34179 a 775.2359,775.2359 0 0 0 -10.10938,17.21485 775.2359,775.2359 0 0 1 10.10938,-17.21485 z m -10.11524,17.22461 a 775.2359,775.2359 0 0 0 -7.01953,12.85547 h 1335.0254 a 775.2359,775.2359 0 0 0 -0.01,-0.0156 775.2359,775.2359 0 0 0 -7.7246,-12.83008 775.2359,775.2359 0 0 0 -0.01,-0.01 z m -16.33203,29.91016 a 775.2359,775.2359 0 0 0 -7.11132,13.02539 H 1673.7227 a 775.2359,775.2359 0 0 0 -0.01,-0.0137 775.2359,775.2359 0 0 0 -7.1836,-13.01172 z m -16.23632,29.73633 a 775.2359,775.2359 0 0 0 -7.29883,13.36719 H 1688.8633 a 775.2359,775.2359 0 0 0 -6.7285,-13.36719 z m 1392.56832,13.37109 a 775.2359,775.2359 0 0 1 7.5371,16.88086 775.2359,775.2359 0 0 0 -7.5371,-16.88086 z m 7.5371,16.88086 H 280.91016 a 775.2359,775.2359 0 0 0 -5.24024,14.05078 H 1702.6309 a 775.2359,775.2359 0 0 0 -6.2286,-14.05078 z m 6.2286,14.05078 a 775.2359,775.2359 0 0 1 6.1289,15.17188 775.2359,775.2359 0 0 0 -6.1289,-15.17188 z M 288.99414,601.45508 a 775.2359,775.2359 0 0 0 -8.08203,16.87109 775.2359,775.2359 0 0 1 8.08203,-16.87109 z m -18.98437,46.10156 a 775.2359,775.2359 0 0 0 -2.81641,7.55469 775.2359,775.2359 0 0 0 -2.67774,7.17969 H 1714.4434 a 775.2359,775.2359 0 0 0 -5.6836,-14.73438 z m 1444.43363,14.73438 a 775.2359,775.2359 0 0 1 5.7578,15.6875 775.2359,775.2359 0 0 0 -5.7578,-15.6875 z m 5.7578,15.6875 H 258.66406 a 775.2359,775.2359 0 0 0 -5.68554,15.24609 H 1725.2383 a 775.2359,775.2359 0 0 0 -2.1445,-6.49023 775.2359,775.2359 0 0 0 -2.8926,-8.75586 z M 252.97852,693.22461 a 775.2359,775.2359 0 0 0 -0.002,0 775.2359,775.2359 0 0 0 -4.14844,11.12305 775.2359,775.2359 0 0 1 4.1504,-11.12305 z m -5.2793,14.15039 a 775.2359,775.2359 0 0 0 -0.002,0.004 775.2359,775.2359 0 0 0 -4.67774,15.75586 H 1734.3496 a 775.2359,775.2359 0 0 0 -4.4375,-15.75977 z m -7.75781,29.9082 a 775.2359,775.2359 0 0 0 -3.53907,16.27149 H 1742.3477 a 775.2359,775.2359 0 0 0 -0.01,-0.0352 775.2359,775.2359 0 0 0 -4.0703,-16.23047 775.2359,775.2359 0 0 0 0,-0.006 z m -6.43164,29.56641 a 775.2359,775.2359 0 0 0 -1.61329,7.41601 775.2359,775.2359 0 0 0 -2.11328,9.71094 h 1519.3242 a 775.2359,775.2359 0 0 0 -3.7754,-17.12695 z m -6.43165,29.56641 a 775.2359,775.2359 0 0 0 -3.83789,17.64062 H 1754.3262 a 775.2359,775.2359 0 0 0 -3.0606,-17.64062 z m 1527.24808,17.64062 a 775.2359,775.2359 0 0 1 1.8164,12.26758 775.2359,775.2359 0 0 0 -1.8164,-12.26758 z m -1531.08597,0 a 775.2359,775.2359 0 0 0 -2.25781,12.26953 775.2359,775.2359 0 0 1 2.25781,-12.26953 z m -2.25781,12.26953 a 775.2359,775.2359 0 0 0 -1.31054,18.32227 H 1758.4023 a 775.2359,775.2359 0 0 0 -2.2597,-18.32227 z m -2.12695,29.73633 a 775.2359,775.2359 0 0 0 -0.12109,1.69727 775.2359,775.2359 0 0 0 -1.22657,17.14062 H 1761.2891 a 775.2359,775.2359 0 0 0 -0.01,-0.0762 775.2359,775.2359 0 0 0 -1.4727,-18.76172 z m -2.13867,29.91016 a 775.2359,775.2359 0 0 0 -1.35938,19.00586 H 1763.0547 a 775.2359,775.2359 0 0 0 -0.9492,-19 775.2359,775.2359 0 0 0 0,-0.006 z m -2.11524,29.5664 a 775.2359,775.2359 0 0 0 -1.30859,18.29883 775.2359,775.2359 0 0 0 0.0742,1.05078 H 1763.6895 a 775.2359,775.2359 0 0 0 0.074,-1.05078 775.2359,775.2359 0 0 0 -0.4492,-18.29883 z m -0.47851,29.90821 a 775.2359,775.2359 0 0 0 1.41992,19.86328 H 1761.5137 a 775.2359,775.2359 0 0 0 1.4199,-19.86328 z m 2.12695,29.73828 a 775.2359,775.2359 0 0 0 0.50391,7.05664 775.2359,775.2359 0 0 0 0.9414,13.14648 H 1759.3613 a 775.2359,775.2359 0 0 0 1.4453,-20.20312 z m 2.1875,30.59175 a 775.2359,775.2359 0 0 0 1.49414,20.8887 H 1757.125 a 775.2359,775.2359 0 0 0 1.4941,-20.8887 z m 2.06641,28.8848 a 775.2359,775.2359 0 0 0 3.26757,21.3984 H 1753.2852 a 775.2359,775.2359 0 0 0 3.2675,-21.3984 z m 5.02343,29.4746 a 775.2359,775.2359 0 0 0 3.36914,15.4824 775.2359,775.2359 0 0 0 1.78125,8.1895 H 1746.3789 a 775.2359,775.2359 0 0 0 5.1504,-23.6719 z m 1520.85156,23.6719 a 775.2359,775.2359 0 0 1 -1.8125,8.3281 775.2359,775.2359 0 0 0 1.8105,-8.3281 z m -1.8125,8.3281 H 232.49023 a 775.2359,775.2359 0 0 0 4.16407,19.1504 775.2359,775.2359 0 0 0 0.63867,2.9336 H 1739.7637 a 775.2359,775.2359 0 0 0 0.6386,-2.9336 775.2359,775.2359 0 0 0 4.1641,-19.1504 z m -1512.07617,0 a 775.2359,775.2359 0 0 1 -1.8125,-8.3281 775.2359,775.2359 0 0 0 1.81055,8.3281 775.2359,775.2359 0 0 0 0.002,0 z m 6.21875,28.5938 a 775.2359,775.2359 0 0 0 1.68946,7.7675 775.2359,775.2359 0 0 0 3.26367,14.9981 H 1733.3945 a 775.2359,775.2359 0 0 0 4.9532,-22.7656 z m 1494.68552,22.7656 a 775.2359,775.2359 0 0 1 -1.9257,7.1426 775.2359,775.2359 0 0 0 1.9257,-7.1426 z m -1.9257,7.1426 H 245.58789 a 775.2359,775.2359 0 0 0 6.53906,17.5332 775.2359,775.2359 0 0 0 2.14258,5.7461 H 1722.7871 a 775.2359,775.2359 0 0 0 2.1426,-5.7461 775.2359,775.2359 0 0 0 6.5391,-17.5332 z m -1485.88091,0 a 775.2359,775.2359 0 0 1 -1.92578,-7.1426 775.2359,775.2359 0 0 0 1.92578,7.1426 z m 11.0918,29.7383 a 775.2359,775.2359 0 0 0 5.4707,14.6699 775.2359,775.2359 0 0 0 3.53125,9.4648 H 1711.375 a 775.2359,775.2359 0 0 0 3.5312,-9.4648 775.2359,775.2359 0 0 0 5.4708,-14.6699 z m 11.02734,29.5664 a 775.2359,775.2359 0 0 0 9.25781,24.8183 H 1700.0918 a 775.2359,775.2359 0 0 0 9.2578,-24.8183 z m 1432.38477,24.8183 a 775.2359,775.2359 0 0 1 -1.7715,4.7481 v 0 a 775.2359,775.2359 0 0 0 1.7695,-4.7481 z m -1.7715,4.7481 H 278.73633 a 775.2359,775.2359 0 0 0 11.77734,25.4941 775.2359,775.2359 0 0 0 0.004,0.01 H 1686.5391 a 775.2359,775.2359 0 0 0 0,-0.01 775.2359,775.2359 0 0 0 11.7773,-25.4941 z m -1419.58397,0 a 775.2359,775.2359 0 0 1 -1.77149,-4.7481 775.2359,775.2359 0 0 0 1.76954,4.7481 z m 14.0957,29.7382 a 775.2359,775.2359 0 0 0 14.20313,26.0157 775.2359,775.2359 0 0 0 0.002,0 H 1670.0195 a 775.2359,775.2359 0 0 0 14.2031,-26.0157 z m 16.42383,30.0801 a 775.2359,775.2359 0 0 0 14.29687,26.1856 H 1653.5039 a 775.2359,775.2359 0 0 0 14.2969,-26.1856 z m 16.42383,30.0801 a 775.2359,775.2359 0 0 0 0.006,0.01 775.2359,775.2359 0 0 0 15.89257,26.5195 H 1635.4785 a 775.2359,775.2359 0 0 0 15.8926,-26.5195 775.2359,775.2359 0 0 0 0.01,-0.01 z m 1309.79881,26.5273 a 775.2359,775.2359 0 0 1 -2.1484,2.8692 775.2359,775.2359 0 0 0 2.1465,-2.8692 z m -2.1484,2.8692 H 343.72656 a 775.2359,775.2359 0 0 0 20.11328,26.8691 H 1613.2168 a 775.2359,775.2359 0 0 0 20.1133,-26.8691 z m -1289.60354,0 a 775.2359,775.2359 0 0 1 -2.14844,-2.8692 775.2359,775.2359 0 0 0 2.14649,2.8692 775.2359,775.2359 0 0 0 0.002,0 z m 22.77149,30.4199 a 775.2359,775.2359 0 0 0 20.37109,27.2109 H 1590.1875 a 775.2359,775.2359 0 0 0 20.3711,-27.2109 z m 1223.68945,27.2109 a 775.2359,775.2359 0 0 1 -2.4043,3.211 775.2359,775.2359 0 0 0 2.4023,-3.211 z m -2.4043,3.211 H 389.27344 a 775.2359,775.2359 0 0 0 23.23242,27.7246 H 1564.5508 a 775.2359,775.2359 0 0 0 23.2324,-27.7246 z m -1198.50976,0 a 775.2359,775.2359 0 0 1 -2.4043,-3.211 775.2359,775.2359 0 0 0 2.40234,3.211 775.2359,775.2359 0 0 0 0.002,0 z m 24.99609,29.4883 a 775.2359,775.2359 0 0 0 28.40625,28.4062 H 1534.3809 a 775.2359,775.2359 0 0 0 28.4062,-28.4062 z m 29.78125,29.7812 a 775.2359,775.2359 0 0 0 73.29102,64.1192 775.2359,775.2359 0 0 0 6.45508,4.832 775.2359,775.2359 0 0 0 75.93554,50.7012 775.2359,775.2359 0 0 0 12.9961,7.0957 775.2359,775.2359 0 0 0 76.97656,38.0156 775.2359,775.2359 0 0 0 20.30859,7.5742 775.2359,775.2359 0 0 0 75.65039,25.7988 775.2359,775.2359 0 0 0 31.19922,6.7871 775.2359,775.2359 0 0 0 69.00586,13.8926 775.2359,775.2359 0 0 0 102.6582,7.3418 775.2359,775.2359 0 0 0 102.65626,-7.3418 775.2359,775.2359 0 0 0 69.0332,-13.8965 775.2359,775.2359 0 0 0 31.1699,-6.7812 775.2359,775.2359 0 0 0 75.6602,-25.8027 775.2359,775.2359 0 0 0 20.3047,-7.5743 775.2359,775.2359 0 0 0 76.9433,-37.9941 775.2359,775.2359 0 0 0 13.0449,-7.1231 775.2359,775.2359 0 0 0 75.918,-50.6933 775.2359,775.2359 0 0 0 6.457,-4.832 775.2359,775.2359 0 0 0 73.2911,-64.1192 z"
         inkscape:label="circulo listrado" /><path
         id="path236"
         style="color:#000000;display:inline;fill:#ffffff;fill-opacity:1;fill-rule:evenodd;stroke:#ffffff;stroke-width:40.434;stroke-linecap:round;stroke-dasharray:none;stroke-opacity:1;paint-order:stroke fill markers"
         d="m 988.52734,137.60156 c -211.1664,0 -413.70624,83.8957 -563.02343,233.21289 -149.3172,149.3172 -233.21094,351.85704 -233.21094,563.02344 0,211.16641 83.89374,413.70631 233.21094,563.02341 149.31719,149.3173 351.85703,233.2129 563.02343,233.2129 211.16646,0 413.70826,-83.8956 563.02536,-233.2129 149.3173,-149.3171 233.211,-351.857 233.211,-563.02341 0,-211.1664 -83.8937,-413.70624 -233.211,-563.02344 C 1402.2356,221.49726 1199.6938,137.60156 988.52734,137.60156 Z m 0,21 c 205.60546,-1.2e-4 402.78996,81.67629 548.17506,227.06133 145.385,145.38504 227.0614,342.5695 227.0613,548.175 10e-5,205.60551 -81.6763,402.78991 -227.0614,548.17501 -145.385,145.385 -342.5695,227.0614 -548.17496,227.0613 -205.60515,-4e-4 -402.7891,-81.677 -548.17372,-227.062 C 294.96901,1336.6272 213.29286,1139.443 213.29297,933.83789 213.29286,728.23274 294.969,531.04857 440.35362,385.66359 585.73823,240.27861 782.92219,158.60197 988.52734,158.60156 Z"
         sodipodi:nodetypes="ssssssssscssssscsc"
         transform="matrix(0.99482933,0,0,0.99482933,5.1113535,4.8285672)"
         inkscape:label="circulo contorno" /><g
         id="g240"
         inkscape:label="estrelas"
         style="display:inline;fill:#003770;fill-opacity:1;stroke:none;stroke-opacity:1"
         transform="translate(-2,12)"><path
           sodipodi:type="star"
           style="display:inline;opacity:1;fill:#003770;fill-opacity:1;fill-rule:evenodd;stroke:#ffffff;stroke-width:39.9987;stroke-linecap:round;stroke-linejoin:round;stroke-dasharray:none;stroke-opacity:1;paint-order:stroke fill markers"
           id="path237"
           inkscape:flatsided="false"
           sodipodi:sides="4"
           sodipodi:cx="1204.5125"
           sodipodi:cy="469.79623"
           sodipodi:r1="72.056076"
           sodipodi:r2="25.219627"
           sodipodi:arg1="-1.5707963"
           sodipodi:arg2="-0.78539816"
           inkscape:rounded="0"
           inkscape:randomized="0"
           d="m 1204.5125,397.74016 17.8329,54.2231 54.2231,17.83298 -54.2231,17.83296 -17.833,54.22311 -17.8329,-54.22311 -54.2231,-17.83297 54.2231,-17.83297 z"
           transform="translate(-0.36390102,0.36390102)"
           inkscape:label="estrela cima" /><path
           sodipodi:type="star"
           style="display:inline;opacity:1;fill:#003770;fill-opacity:1;fill-rule:evenodd;stroke:#ffffff;stroke-width:39.9987;stroke-linecap:round;stroke-linejoin:round;stroke-dasharray:none;stroke-opacity:1;paint-order:stroke fill markers"
           id="path238"
           inkscape:flatsided="false"
           sodipodi:sides="4"
           sodipodi:cx="1204.5125"
           sodipodi:cy="469.79623"
           sodipodi:r1="72.056076"
           sodipodi:r2="25.219627"
           sodipodi:arg1="-1.5707963"
           sodipodi:arg2="-0.78539816"
           inkscape:rounded="0"
           inkscape:randomized="0"
           d="m 1204.5125,397.74016 17.8329,54.2231 54.2231,17.83298 -54.2231,17.83296 -17.833,54.22311 -17.8329,-54.22311 -54.2231,-17.83297 54.2231,-17.83297 z"
           transform="translate(-193.95924,250)"
           inkscape:label="estrela esquerda" /><path
           sodipodi:type="star"
           style="display:inline;opacity:1;fill:#003770;fill-opacity:1;fill-rule:evenodd;stroke:#ffffff;stroke-width:39.9987;stroke-linecap:round;stroke-linejoin:round;stroke-dasharray:none;stroke-opacity:1;paint-order:stroke fill markers"
           id="path239"
           inkscape:flatsided="false"
           sodipodi:sides="4"
           sodipodi:cx="1204.5125"
           sodipodi:cy="469.79623"
           sodipodi:r1="72.056076"
           sodipodi:r2="25.219627"
           sodipodi:arg1="-1.5707963"
           sodipodi:arg2="-0.78539816"
           inkscape:rounded="0"
           inkscape:randomized="0"
           d="m 1204.5125,397.74016 17.8329,54.2231 54.2231,17.83298 -54.2231,17.83296 -17.833,54.22311 -17.8329,-54.22311 -54.2231,-17.83297 54.2231,-17.83297 z"
           transform="translate(191.04804,197.59825)"
           inkscape:label="estrela direita" /><path
           sodipodi:type="star"
           style="display:inline;opacity:1;fill:#003770;fill-opacity:1;fill-rule:evenodd;stroke:#ffffff;stroke-width:39.9987;stroke-linecap:round;stroke-linejoin:round;stroke-dasharray:none;stroke-opacity:1;paint-order:stroke fill markers"
           id="path240"
           inkscape:flatsided="false"
           sodipodi:sides="4"
           sodipodi:cx="1204.5125"
           sodipodi:cy="469.79623"
           sodipodi:r1="72.056076"
           sodipodi:r2="25.219627"
           sodipodi:arg1="-1.5707963"
           sodipodi:arg2="-0.78539816"
           inkscape:rounded="0"
           inkscape:randomized="0"
           d="m 1204.5125,397.74016 17.8329,54.2231 54.2231,17.83298 -54.2231,17.83296 -17.833,54.22311 -17.8329,-54.22311 -54.2231,-17.83297 54.2231,-17.83297 z"
           transform="translate(-2.5473022,536.754)"
           inkscape:label="estrela baixo" /></g></g><text
       xml:space="preserve"
       style="font-style:normal;font-variant:normal;font-weight:normal;font-stretch:normal;font-size:74.6667px;font-family:'Lucida Sans Unicode';-inkscape-font-specification:'Lucida Sans Unicode';letter-spacing:0px;fill:#fff699;fill-opacity:1;fill-rule:evenodd;stroke:none;stroke-width:40;stroke-linecap:round;stroke-opacity:1;paint-order:stroke fill markers"
       x="36.58194"
       y="96.633347"
       id="text4"
       inkscape:label="pindorama"><tspan
         sodipodi:role="line"
         id="tspan4"
         x="36.58194"
         y="96.633347"
         style="font-size:74.6667px">Pindorama</tspan></text><text
       xml:space="preserve"
       style="font-style:normal;font-variant:normal;font-weight:normal;font-stretch:normal;font-size:160px;font-family:'Lucida Sans Unicode';-inkscape-font-specification:'Lucida Sans Unicode';letter-spacing:0px;fill:#ffffff;fill-opacity:1;fill-rule:evenodd;stroke:none;stroke-width:40;stroke-linecap:round;stroke-opacity:1;paint-order:stroke fill markers"
       x="34.814232"
       y="241.59587"
       id="text5"
       inkscape:label="copacabana"><tspan
         sodipodi:role="line"
         id="tspan5"
         x="34.814232"
         y="241.59587"
         style="font-size:160px">Copacabana</tspan></text></g></svg>
