<?xml version="1.0" encoding="UTF-8" standalone="no"?>
<!-- Created with Inkscape (http://www.inkscape.org/) -->

<svg
   width="2000"
   height="2000"
   viewBox="0 0 2000 2000"
   version="1.1"
   id="svg1"
   xml:space="preserve"
   inkscape:version="1.3.2 (091e20e, 2023-11-25, custom)"
   sodipodi:docname="logo listrada.svg"
   inkscape:export-filename="logo listrada.png"
   inkscape:export-xdpi="96"
   inkscape:export-ydpi="96"
   xmlns:inkscape="http://www.inkscape.org/namespaces/inkscape"
   xmlns:sodipodi="http://sodipodi.sourceforge.net/DTD/sodipodi-0.dtd"
   xmlns="http://www.w3.org/2000/svg"
   xmlns:svg="http://www.w3.org/2000/svg"><sodipodi:namedview
     id="namedview1"
     pagecolor="#ffffff"
     bordercolor="#000000"
     borderopacity="0.25"
     inkscape:showpageshadow="2"
     inkscape:pageopacity="0.0"
     inkscape:pagecheckerboard="0"
     inkscape:deskcolor="#d1d1d1"
     inkscape:document-units="mm"
     showguides="true"
     inkscape:zoom="0.3435"
     inkscape:cx="896.65211"
     inkscape:cy="877.72926"
     inkscape:window-width="1920"
     inkscape:window-height="1017"
     inkscape:window-x="-8"
     inkscape:window-y="-8"
     inkscape:window-maximized="1"
     inkscape:current-layer="layer1" /><defs
     id="defs1" /><g
     inkscape:label="Camada 1"
     inkscape:groupmode="layer"
     id="layer1"><g
       id="g5"
       inkscape:label="calçadão"
       style="display:inline"
       transform="translate(-2,12)"><path
         style="opacity:1;fill:#ffffff;fill-opacity:1;fill-rule:evenodd;stroke:none;stroke-width:40;stroke-linecap:round;stroke-dasharray:none;stroke-opacity:1;paint-order:stroke fill markers"
         d="m 48.582047,1504.5649 c 0,0 32.38593,7.9229 61.498013,7.9229 292.08993,0 265.72485,-347.4304 572.59825,-347.4304 314.21644,0 301.04515,347.6124 521.67269,347.6124 198.4981,0 164.6446,-168.5731 361.1512,-168.5731 192.5036,0 150.2911,169.3009 338.4279,169.3009 37.2999,0 59.4972,-9.9244 59.4972,-9.9244 l -0.3639,166.845 c 0,0 -23.5165,7.7505 -60.6344,7.7505 -180.4218,0 -159.3431,-168.3101 -331.8322,-168.3101 -203.0568,0 -153.4086,167.9273 -370.2936,167.9273 -256.58493,0 -229.41528,-339.9661 -516.16928,-339.9661 -286.75401,0 -260.75494,340.0871 -570.21082,340.0871 -61.345942,0 -65.341053,-7.4887 -65.341053,-7.4887 z"
         id="path3"
         sodipodi:nodetypes="csssssccssssscc"
         inkscape:label="caminho meio" /><path
         style="opacity:1;fill:#000000;fill-opacity:1;fill-rule:evenodd;stroke:none;stroke-width:40;stroke-linecap:round;stroke-dasharray:none;stroke-opacity:1;paint-order:stroke fill markers"
         d="m 48.582047,1662.3421 c 0,0 32.38593,7.9229 61.498013,7.9229 292.08993,0 265.72485,-347.4304 572.59825,-347.4304 314.21644,0 301.04515,347.6124 521.67269,347.6124 198.4981,0 164.6446,-168.5731 361.1512,-168.5731 192.5036,0 150.2911,169.3009 338.4279,169.3009 37.2999,0 59.4972,-9.9244 59.4972,-9.9244 l -0.3639,166.845 c 0,0 -23.5165,7.7505 -60.6344,7.7505 -180.4218,0 -159.3431,-168.3101 -331.8322,-168.3101 -203.0568,0 -153.4086,167.9273 -370.2936,167.9273 -256.58493,0 -229.41528,-339.9661 -516.16928,-339.9661 -286.75401,0 -260.75494,340.0871 -570.21082,340.0871 -61.345942,0 -65.341053,-7.4887 -65.341053,-7.4887 z"
         id="path1"
         sodipodi:nodetypes="csssssccssssscc"
         inkscape:label="caminho baixo" /><path
         style="opacity:1;fill:#000000;fill-opacity:1;fill-rule:evenodd;stroke:none;stroke-width:40;stroke-linecap:round;stroke-dasharray:none;stroke-opacity:1;paint-order:stroke fill markers"
         d="m 48.582047,1346.0577 c 0,0 32.38593,7.9229 61.498013,7.9229 292.08993,0 265.72485,-347.4304 572.59825,-347.4304 314.21644,0 301.04515,347.6124 521.67269,347.6124 198.4981,0 164.6446,-168.5731 361.1512,-168.5731 192.5036,0 150.2911,169.3009 338.4279,169.3009 37.2999,0 59.4972,-9.9244 59.4972,-9.9244 l -0.3639,166.845 c 0,0 -23.5165,7.7505 -60.6344,7.7505 -180.4218,0 -159.3431,-168.3101 -331.8322,-168.3101 -203.0568,0 -153.4086,167.9273 -370.2936,167.9273 -256.58493,0 -229.41528,-339.9661 -516.16928,-339.9661 -286.75401,0 -260.75494,340.0871 -570.21082,340.0871 -61.345942,0 -65.341053,-7.4887 -65.341053,-7.4887 z"
         id="path241"
         sodipodi:nodetypes="csssssccssssscc"
         inkscape:label="caminho cima" /></g><path
       id="path4"
       style="display:inline;opacity:1;fill:#003770;fill-opacity:1;fill-rule:evenodd;stroke-width:19.1338;stroke-linecap:round;paint-order:stroke fill markers"
       inkscape:label="circulo listrado cortado"
       d="m 986.52734,153.71875 c -210.0741,0 -411.5665,83.46299 -560.11132,232.00781 -148.54485,148.54483 -232.00586,350.03722 -232.00586,560.11133 0,120.22311 27.44696,237.58111 78.67187,343.86721 12.81412,-10.2986 24.7577,-21.9632 36.375,-34.1953 h -29.00781 c -0.6953,-1.5854 -1.41893,-3.1581 -2.10352,-4.7481 h 35.66602 c 7.40687,-8.0038 14.71554,-16.2755 21.87305,-24.8183 h -67.67774 c -0.70511,-1.8082 -1.40423,-3.6182 -2.0957,-5.4317 h 74.35547 c 6.5308,-7.9136 13.08895,-15.9427 19.57422,-24.1347 H 257.32031 c -0.73685,-2.1445 -1.4187,-4.3078 -2.13672,-6.459 h 109.98243 c 2.64837,-3.3612 5.28388,-6.6281 7.94531,-10.0137 3.46358,-4.406 7.06693,-8.8387 10.57226,-13.2656 H 247.66797 c -0.70719,-2.3662 -1.29783,-4.7691 -1.98242,-7.1426 h 143.6914 c 6.11561,-7.6552 12.42232,-15.1908 18.79297,-22.7656 H 239.36719 c -0.55362,-2.1666 -1.08424,-4.3378 -1.61914,-6.5098 h 176.01367 c 6.43293,-7.4887 13.03904,-14.8401 19.875,-22.084 H 232.76953 c -0.59942,-2.7835 -1.31008,-5.5368 -1.87891,-8.3281 h 211.00196 c 7.99276,-8.0931 16.04075,-16.1374 24.77539,-23.6719 H 226.61719 c -0.46197,-2.6939 -0.97467,-5.3759 -1.40821,-8.0762 h 251.04688 c 4.85134,-3.908 9.76229,-7.7689 14.88281,-11.455 4.80874,-3.4617 9.84488,-6.7188 14.91406,-9.9434 H 222.13086 c -0.35107,-2.6616 -0.66874,-5.3291 -0.99219,-7.9961 h 298.40625 c 14.15943,-8.0088 29.32319,-15.0316 45.60156,-20.8887 H 218.75781 c -0.32338,-3.4523 -0.4964,-6.9286 -0.77343,-10.3886 H 600.0293 c 24.50869,-5.6524 51.24107,-8.8379 80.64843,-8.8379 29.96586,0 57.17414,3.1955 82.12891,8.8379 h 992.26566 c -0.2771,3.46 -0.4501,6.9363 -0.7735,10.3886 H 798.44336 c 16.64397,5.8642 32.15717,12.8892 46.66406,20.8887 H 1751.918 c -0.3235,2.667 -0.6412,5.3345 -0.9922,7.9961 H 858.96094 c 10.75545,6.6564 20.97002,13.8065 30.65625,21.3984 h 858.23051 c -0.4336,2.7003 -0.9463,5.3823 -1.4082,8.0762 H 899.45117 c 9.03966,7.6052 17.7506,15.468 25.96094,23.6719 H 1742.166 c -0.5688,2.7913 -1.2795,5.5446 -1.8789,8.3281 H 933.39062 c 6.85296,7.1946 13.18249,14.6338 19.53711,22.084 h 782.38087 c -0.5349,2.172 -1.0655,4.3432 -1.6191,6.5098 H 958.46875 c 6.28261,7.5709 12.40581,15.1033 18.28516,22.7656 h 750.61719 c -0.6846,2.3735 -1.2752,4.7764 -1.9824,7.1426 H 982.18164 c 3.4961,4.6432 7.19093,9.2872 10.57227,13.9101 2.37117,3.2419 4.51309,6.1472 6.84769,9.3692 h 481.5214 c 23.1223,-7.6682 50.1104,-12.3282 82.379,-12.3282 31.3973,0 57.5185,4.6686 79.7695,12.3282 h 74.6015 c -0.718,2.1512 -1.3998,4.3144 -2.1367,6.459 h -56.3379 c 15.2699,6.8192 28.5749,15.0645 40.3887,24.1347 h 7.1582 c -0.566,1.4847 -1.1394,2.9664 -1.7148,4.4473 5.8701,4.8048 11.4482,9.727 16.6718,14.7969 37.0234,-92.6299 56.7442,-192.2357 56.7442,-293.91801 0,-210.07411 -83.4609,-411.5665 -232.0059,-560.11133 C 1398.0959,237.18174 1196.6015,153.71875 986.52734,153.71875 Z m 0,20.89063 c 37.92996,-3e-5 75.56586,2.8246 112.64456,8.29882 H 873.88281 c 37.07855,-5.4743 74.71465,-8.29876 112.64453,-8.29882 z m -142.38672,13.42578 h 284.77348 c 33.3651,6.26972 66.1681,14.77528 98.2773,25.32617 H 745.86523 c 32.10885,-10.55082 64.91057,-19.05644 98.27539,-25.32617 z m -115.23632,30.9375 h 515.2461 c 20.0186,7.0956 39.6681,15.15633 59.0293,23.87695 H 669.87695 c 19.36104,-8.72063 39.00885,-16.78134 59.02735,-23.87695 z m -73.63672,30.45312 h 662.52152 c 15.3838,7.31731 30.4468,15.30339 45.332,23.63477 H 609.93555 c 14.88469,-8.33113 29.94853,-16.31765 45.33203,-23.63477 z m -57.81836,30.69727 h 778.15818 c 12.2485,7.15804 24.3468,14.58518 36.2071,22.42578 H 561.24023 c 11.86037,-7.84074 23.96038,-15.26762 36.20899,-22.42578 z m -46.85938,29.72851 h 871.87696 c 10.6217,7.28039 21.0634,14.84148 31.3359,22.66797 H 519.25391 c 10.27272,-7.82664 20.71408,-15.38745 31.33593,-22.66797 z m -41.95312,30.9375 H 1464.418 c 8.7,6.87171 17.2476,13.95229 25.6699,21.2168 H 482.96875 c 8.42178,-7.26407 16.96846,-14.34548 25.66797,-21.2168 z m -35.82813,29.97071 H 1500.25 c 7.8648,7.02602 15.5384,14.29704 23.1367,21.66796 H 449.66797 c 7.59894,-7.37157 15.27518,-14.64135 23.14062,-21.66796 z m -32.92187,31.10546 H 1533.168 c 6.3266,6.35772 12.4267,12.89544 18.5078,19.44727 H 421.38086 c 6.08074,-6.55147 12.17957,-13.08988 18.50586,-19.44727 z m -27.99219,29.73633 H 1561.1621 c 6.0167,6.72298 11.8757,13.56268 17.6367,20.47266 H 394.25781 c 5.7612,-6.91024 11.61983,-13.74944 17.63672,-20.47266 z m -26.46484,31.27735 H 1587.627 c 4.7448,5.90541 9.3912,11.87752 13.9511,17.9082 H 371.47852 c 4.55992,-6.03067 9.20627,-12.00279 13.95117,-17.9082 z m -22.5,29.39648 H 1610.127 c 4.4596,6.13169 8.7962,12.34127 13.0664,18.5918 H 349.86328 c 4.27019,-6.25053 8.60671,-12.46011 13.06641,-18.5918 z m -21.36914,30.93359 H 1631.4961 c 3.7255,5.68584 7.3167,11.44871 10.8867,17.22461 H 330.67383 c 3.56998,-5.77589 7.16118,-11.53878 10.88672,-17.22461 z m -18.78516,30.08008 H 1650.2812 c 3.3266,5.62531 6.4645,11.35113 9.6446,17.05469 H 313.13086 c 3.18009,-5.70355 6.31795,-11.42939 9.64453,-17.05469 z m -16.96875,30.08008 H 1667.25 c 2.9318,5.50644 5.6063,11.13771 8.4023,16.71094 H 297.40625 c 2.79582,-5.5727 5.46883,-11.20502 8.40039,-16.71094 z m -15.12109,30.07813 H 1682.3711 c 2.6644,5.57816 5.1233,11.24547 7.6523,16.88476 H 283.0332 c 2.52901,-5.63922 4.98792,-11.30667 7.65235,-16.88476 z m -13.87696,30.93554 H 1696.25 c 2.1375,5.03245 4.1867,10.09705 6.2168,15.17383 H 270.5918 c 2.03012,-5.07693 4.07921,-10.14124 6.21679,-15.17383 z m -11.90429,29.90821 h 1443.248 c 1.965,5.22157 3.9726,10.42334 5.8243,15.6875 H 259.08008 c 1.85169,-5.26434 3.85918,-10.46576 5.82422,-15.6875 z m -10.86914,30.93359 H 1719.0215 c 1.5508,4.72072 3.2217,9.39872 4.6816,14.15039 H 249.35352 c 1.45986,-4.75166 3.1308,-9.42968 4.68164,-14.15039 z m -9.16993,29.91016 H 1728.1914 c 1.3376,4.70745 2.6794,9.41367 3.9277,14.14843 H 240.9375 c 1.24838,-4.73475 2.5902,-9.44098 3.92773,-14.14843 z m -8.04101,30.41992 H 1736.2324 c 1.0619,4.41497 2.0137,8.85874 2.9981,13.29492 H 233.82617 c 0.98433,-4.43617 1.93622,-8.87995 2.99805,-13.29492 z m -6.79297,30.42187 H 1743.0254 c 0.8171,4.1243 1.4198,8.29896 2.1699,12.43946 H 227.86133 c 0.75007,-4.14049 1.35285,-8.31517 2.16992,-12.43946 z m -5.24805,30.08008 h 1523.4902 c 0.6422,4.08353 1.2435,8.17224 1.8204,12.26953 H 222.96289 c 0.57689,-4.09729 1.17818,-8.18601 1.82031,-12.26953 z m -4.09765,30.5918 H 1752.3711 c 0.4437,3.8105 1.0308,7.59329 1.418,11.41406 H 219.26758 c 0.38719,-3.82076 0.97422,-7.60357 1.41797,-11.41406 z m -2.89649,30.25195 H 1755.2676 c 0.2828,3.6896 0.5923,7.3746 0.8222,11.07227 H 216.9668 c 0.22991,-3.69767 0.53945,-7.38267 0.82226,-11.07227 z m -1.77148,30.07813 H 1757.0391 c 0.1316,3.51495 0.1781,7.03961 0.2617,10.56054 H 215.75586 c 0.0836,-3.52092 0.13012,-7.0456 0.26172,-10.56054 z m -0.69141,29.91015 H 1757.7305 c 0,3.52912 -0.2106,7.03473 -0.2637,10.5586 H 215.58984 c -0.0531,-3.52386 -0.25886,-7.02948 -0.26367,-10.5586 z m 0.75586,30.42188 H 1756.9746 c -0.1344,3.29232 -0.2221,6.58839 -0.3984,9.875 H 216.48047 c -0.17638,-3.28661 -0.26402,-6.58268 -0.39844,-9.875 z M 1004.3223,1196.377 c 5.9578,8.2516 11.8277,16.1574 17.6406,24.1347 h 399.873 c 12.5665,-9.0924 26.6736,-17.3026 42.6465,-24.1347 z m 21.6113,29.5664 c 6.148,8.3771 12.5158,16.9591 18.6445,24.8183 h 341.8633 c 8.7384,-8.4977 18.2449,-16.8403 28.502,-24.8183 z m 22.4707,29.5664 c 7.1611,9.0155 14.4427,17.5031 21.791,25.5039 h 285.9766 c 4.345,-4.4066 8.6962,-8.4802 13.1504,-13.0684 3.9783,-4.098 8.1318,-8.2716 12.3125,-12.4355 z m 25.8145,29.7382 c 3.8056,4.0032 7.5189,8.3561 11.4218,12.0215 5.3717,5.0448 10.8541,9.6304 16.4121,13.9942 h 221.0547 c 10.2727,-7.7182 19.5684,-16.8156 28.8047,-26.0157 z m 33.1562,30.0801 c 16.6764,12.2198 34.67,21.1865 55.3965,26.1856 h 89.6914 c 26.7635,-5.093 47.2291,-14.2702 64.5,-26.1856 z m 79.1328,30.0801 c 5.1311,0.44 10.3589,0.7539 15.8438,0.7539 5.4016,0 9.9373,-0.5191 14.9453,-0.7539 z"
       sodipodi:nodetypes="ssscccccccccccccsccccccccccccccccsccccccccsccccccccccccccccccccccccsccsccccccccssssccsccccccccccccccccccccccccccccccccccccccccccccccccccccccccccccccccccccccccccccccccccccccccccccccccccccccccccccccccccccccccccccccccccccccccccccccccccccscccsccccccccccscc" /><g
       id="g240"
       inkscape:label="estrelas"
       style="display:inline;stroke:#003770;stroke-opacity:1;stroke-width:40;stroke-dasharray:none;stroke-linecap:round;stroke-linejoin:round"
       transform="translate(-2,12)"><path
         sodipodi:type="star"
         style="display:inline;opacity:1;fill:#fff898;fill-opacity:1;fill-rule:evenodd;stroke:#003770;stroke-width:40;stroke-linecap:round;stroke-dasharray:none;stroke-opacity:1;paint-order:stroke fill markers;stroke-linejoin:round"
         id="path237"
         inkscape:flatsided="false"
         sodipodi:sides="4"
         sodipodi:cx="1204.5125"
         sodipodi:cy="469.79623"
         sodipodi:r1="72.056076"
         sodipodi:r2="25.219627"
         sodipodi:arg1="-1.5707963"
         sodipodi:arg2="-0.78539816"
         inkscape:rounded="0"
         inkscape:randomized="0"
         d="m 1204.5125,397.74016 17.8329,54.2231 54.2231,17.83298 -54.2231,17.83296 -17.833,54.22311 -17.8329,-54.22311 -54.2231,-17.83297 54.2231,-17.83297 z"
         transform="translate(-0.36390102,0.36390102)"
         inkscape:label="estrela cima" /><path
         sodipodi:type="star"
         style="display:inline;opacity:1;fill:#fff898;fill-opacity:1;fill-rule:evenodd;stroke:#003770;stroke-width:40;stroke-linecap:round;stroke-dasharray:none;stroke-opacity:1;paint-order:stroke fill markers;stroke-linejoin:round"
         id="path238"
         inkscape:flatsided="false"
         sodipodi:sides="4"
         sodipodi:cx="1204.5125"
         sodipodi:cy="469.79623"
         sodipodi:r1="72.056076"
         sodipodi:r2="25.219627"
         sodipodi:arg1="-1.5707963"
         sodipodi:arg2="-0.78539816"
         inkscape:rounded="0"
         inkscape:randomized="0"
         d="m 1204.5125,397.74016 17.8329,54.2231 54.2231,17.83298 -54.2231,17.83296 -17.833,54.22311 -17.8329,-54.22311 -54.2231,-17.83297 54.2231,-17.83297 z"
         transform="translate(-193.95924,250)"
         inkscape:label="estrela esquerda" /><path
         sodipodi:type="star"
         style="display:inline;opacity:1;fill:#fff898;fill-opacity:1;fill-rule:evenodd;stroke:#003770;stroke-width:40;stroke-linecap:round;stroke-dasharray:none;stroke-opacity:1;paint-order:stroke fill markers;stroke-linejoin:round"
         id="path239"
         inkscape:flatsided="false"
         sodipodi:sides="4"
         sodipodi:cx="1204.5125"
         sodipodi:cy="469.79623"
         sodipodi:r1="72.056076"
         sodipodi:r2="25.219627"
         sodipodi:arg1="-1.5707963"
         sodipodi:arg2="-0.78539816"
         inkscape:rounded="0"
         inkscape:randomized="0"
         d="m 1204.5125,397.74016 17.8329,54.2231 54.2231,17.83298 -54.2231,17.83296 -17.833,54.22311 -17.8329,-54.22311 -54.2231,-17.83297 54.2231,-17.83297 z"
         transform="translate(191.04804,197.59825)"
         inkscape:label="estrela direita" /><path
         sodipodi:type="star"
         style="display:inline;opacity:1;fill:#fff898;fill-opacity:1;fill-rule:evenodd;stroke:#003770;stroke-width:40;stroke-linecap:round;stroke-dasharray:none;stroke-opacity:1;paint-order:stroke fill markers;stroke-linejoin:round"
         id="path240"
         inkscape:flatsided="false"
         sodipodi:sides="4"
         sodipodi:cx="1204.5125"
         sodipodi:cy="469.79623"
         sodipodi:r1="72.056076"
         sodipodi:r2="25.219627"
         sodipodi:arg1="-1.5707963"
         sodipodi:arg2="-0.78539816"
         inkscape:rounded="0"
         inkscape:randomized="0"
         d="m 1204.5125,397.74016 17.8329,54.2231 54.2231,17.83298 -54.2231,17.83296 -17.833,54.22311 -17.8329,-54.22311 -54.2231,-17.83297 54.2231,-17.83297 z"
         transform="translate(-2.5473022,536.754)"
         inkscape:label="estrela baixo" /></g></g></svg>
