<?xml version="1.0" encoding="UTF-8" standalone="no"?>
<!-- Created with Inkscape (http://www.inkscape.org/) -->

<svg
   width="2000"
   height="2000"
   viewBox="0 0 2000 2000"
   version="1.1"
   id="svg1"
   xml:space="preserve"
   inkscape:version="1.3.2 (091e20e, 2023-11-25, custom)"
   sodipodi:docname="logo sólida.svg"
   inkscape:export-filename="logo sólida.png"
   inkscape:export-xdpi="96"
   inkscape:export-ydpi="96"
   xmlns:inkscape="http://www.inkscape.org/namespaces/inkscape"
   xmlns:sodipodi="http://sodipodi.sourceforge.net/DTD/sodipodi-0.dtd"
   xmlns="http://www.w3.org/2000/svg"
   xmlns:svg="http://www.w3.org/2000/svg"><sodipodi:namedview
     id="namedview1"
     pagecolor="#ffffff"
     bordercolor="#000000"
     borderopacity="0.25"
     inkscape:showpageshadow="2"
     inkscape:pageopacity="0.0"
     inkscape:pagecheckerboard="0"
     inkscape:deskcolor="#d1d1d1"
     inkscape:document-units="mm"
     showguides="true"
     inkscape:zoom="0.3435"
     inkscape:cx="876.27365"
     inkscape:cy="906.84134"
     inkscape:window-width="1920"
     inkscape:window-height="1017"
     inkscape:window-x="-8"
     inkscape:window-y="-8"
     inkscape:window-maximized="1"
     inkscape:current-layer="layer1" /><defs
     id="defs1" /><g
     inkscape:label="Camada 1"
     inkscape:groupmode="layer"
     id="layer1"><g
       id="g5"
       inkscape:label="calçadão"
       style="display:inline"
       transform="translate(-2,12)"><path
         style="opacity:1;fill:#ffffff;fill-opacity:1;fill-rule:evenodd;stroke:none;stroke-width:40;stroke-linecap:round;stroke-dasharray:none;stroke-opacity:1;paint-order:stroke fill markers"
         d="m 48.582047,1504.5649 c 0,0 32.38593,7.9229 61.498013,7.9229 292.08993,0 265.72485,-347.4304 572.59825,-347.4304 314.21644,0 301.04515,347.6124 521.67269,347.6124 198.4981,0 164.6446,-168.5731 361.1512,-168.5731 192.5036,0 150.2911,169.3009 338.4279,169.3009 37.2999,0 59.4972,-9.9244 59.4972,-9.9244 l -0.3639,166.845 c 0,0 -23.5165,7.7505 -60.6344,7.7505 -180.4218,0 -159.3431,-168.3101 -331.8322,-168.3101 -203.0568,0 -153.4086,167.9273 -370.2936,167.9273 -256.58493,0 -229.41528,-339.9661 -516.16928,-339.9661 -286.75401,0 -260.75494,340.0871 -570.21082,340.0871 -61.345942,0 -65.341053,-7.4887 -65.341053,-7.4887 z"
         id="path3"
         sodipodi:nodetypes="csssssccssssscc"
         inkscape:label="caminho meio" /><path
         style="opacity:1;fill:#000000;fill-opacity:1;fill-rule:evenodd;stroke:none;stroke-width:40;stroke-linecap:round;stroke-dasharray:none;stroke-opacity:1;paint-order:stroke fill markers"
         d="m 48.582047,1662.3421 c 0,0 32.38593,7.9229 61.498013,7.9229 292.08993,0 265.72485,-347.4304 572.59825,-347.4304 314.21644,0 301.04515,347.6124 521.67269,347.6124 198.4981,0 164.6446,-168.5731 361.1512,-168.5731 192.5036,0 150.2911,169.3009 338.4279,169.3009 37.2999,0 59.4972,-9.9244 59.4972,-9.9244 l -0.3639,166.845 c 0,0 -23.5165,7.7505 -60.6344,7.7505 -180.4218,0 -159.3431,-168.3101 -331.8322,-168.3101 -203.0568,0 -153.4086,167.9273 -370.2936,167.9273 -256.58493,0 -229.41528,-339.9661 -516.16928,-339.9661 -286.75401,0 -260.75494,340.0871 -570.21082,340.0871 -61.345942,0 -65.341053,-7.4887 -65.341053,-7.4887 z"
         id="path1"
         sodipodi:nodetypes="csssssccssssscc"
         inkscape:label="caminho baixo" /><path
         style="opacity:1;fill:#000000;fill-opacity:1;fill-rule:evenodd;stroke:none;stroke-width:40;stroke-linecap:round;stroke-dasharray:none;stroke-opacity:1;paint-order:stroke fill markers"
         d="m 48.582047,1346.0577 c 0,0 32.38593,7.9229 61.498013,7.9229 292.08993,0 265.72485,-347.4304 572.59825,-347.4304 314.21644,0 301.04515,347.6124 521.67269,347.6124 198.4981,0 164.6446,-168.5731 361.1512,-168.5731 192.5036,0 150.2911,169.3009 338.4279,169.3009 37.2999,0 59.4972,-9.9244 59.4972,-9.9244 l -0.3639,166.845 c 0,0 -23.5165,7.7505 -60.6344,7.7505 -180.4218,0 -159.3431,-168.3101 -331.8322,-168.3101 -203.0568,0 -153.4086,167.9273 -370.2936,167.9273 -256.58493,0 -229.41528,-339.9661 -516.16928,-339.9661 -286.75401,0 -260.75494,340.0871 -570.21082,340.0871 -61.345942,0 -65.341053,-7.4887 -65.341053,-7.4887 z"
         id="path241"
         sodipodi:nodetypes="csssssccssssscc"
         inkscape:label="caminho cima" /></g><path
       id="circle5"
       style="display:inline;opacity:1;fill:#003770;fill-opacity:1;fill-rule:evenodd;stroke-width:19.134;stroke-linecap:round;stroke-dasharray:none;paint-order:stroke fill markers"
       inkscape:label="circulo sólido cortado"
       d="m 986.52734,153.71875 c -210.0741,0 -411.5665,83.46299 -560.11132,232.00781 -148.54485,148.54483 -232.00586,350.03722 -232.00586,560.11133 0,120.22311 27.44696,237.58111 78.67187,343.86721 37.11505,-29.8289 67.98366,-69.0356 100.0293,-109.8008 34.19363,-43.4977 69.86384,-88.6273 118.02734,-123.2988 48.16351,-34.6718 109.04708,-58.0547 189.53906,-58.0547 164.48296,0 247.82336,94.1514 312.07618,181.998 32.12649,43.9234 60.61989,86.4177 92.88669,116.7207 32.2671,30.3033 66.806,48.8926 116.711,48.8926 93.5871,0 126.0867,-36.1026 166.9707,-78.2168 40.8837,-42.1139 90.2077,-90.3555 194.1797,-90.3555 78.861,0 124.542,29.3046 158.4003,62.1661 37.0234,-92.6299 56.7442,-192.2357 56.7442,-293.91801 0,-210.07411 -83.4609,-411.5665 -232.0059,-560.11133 C 1398.0959,237.18174 1196.6015,153.71875 986.52734,153.71875 Z"
       sodipodi:nodetypes="ssscscsssssscsss" /><g
       id="g240"
       inkscape:label="estrelas"
       style="display:inline"
       transform="translate(-2,12)"><path
         sodipodi:type="star"
         style="display:inline;opacity:1;fill:#fff898;fill-opacity:1;fill-rule:evenodd;stroke:none;stroke-width:40;stroke-linecap:round;stroke-dasharray:none;stroke-opacity:1;paint-order:stroke fill markers"
         id="path237"
         inkscape:flatsided="false"
         sodipodi:sides="4"
         sodipodi:cx="1204.5125"
         sodipodi:cy="469.79623"
         sodipodi:r1="72.056076"
         sodipodi:r2="25.219627"
         sodipodi:arg1="-1.5707963"
         sodipodi:arg2="-0.78539816"
         inkscape:rounded="0"
         inkscape:randomized="0"
         d="m 1204.5125,397.74016 17.8329,54.2231 54.2231,17.83298 -54.2231,17.83296 -17.833,54.22311 -17.8329,-54.22311 -54.2231,-17.83297 54.2231,-17.83297 z"
         transform="translate(-0.36390102,0.36390102)"
         inkscape:label="estrela cima" /><path
         sodipodi:type="star"
         style="display:inline;opacity:1;fill:#fff898;fill-opacity:1;fill-rule:evenodd;stroke:none;stroke-width:40;stroke-linecap:round;stroke-dasharray:none;stroke-opacity:1;paint-order:stroke fill markers"
         id="path238"
         inkscape:flatsided="false"
         sodipodi:sides="4"
         sodipodi:cx="1204.5125"
         sodipodi:cy="469.79623"
         sodipodi:r1="72.056076"
         sodipodi:r2="25.219627"
         sodipodi:arg1="-1.5707963"
         sodipodi:arg2="-0.78539816"
         inkscape:rounded="0"
         inkscape:randomized="0"
         d="m 1204.5125,397.74016 17.8329,54.2231 54.2231,17.83298 -54.2231,17.83296 -17.833,54.22311 -17.8329,-54.22311 -54.2231,-17.83297 54.2231,-17.83297 z"
         transform="translate(-193.95924,250)"
         inkscape:label="estrela esquerda" /><path
         sodipodi:type="star"
         style="display:inline;opacity:1;fill:#fff898;fill-opacity:1;fill-rule:evenodd;stroke:none;stroke-width:40;stroke-linecap:round;stroke-dasharray:none;stroke-opacity:1;paint-order:stroke fill markers"
         id="path239"
         inkscape:flatsided="false"
         sodipodi:sides="4"
         sodipodi:cx="1204.5125"
         sodipodi:cy="469.79623"
         sodipodi:r1="72.056076"
         sodipodi:r2="25.219627"
         sodipodi:arg1="-1.5707963"
         sodipodi:arg2="-0.78539816"
         inkscape:rounded="0"
         inkscape:randomized="0"
         d="m 1204.5125,397.74016 17.8329,54.2231 54.2231,17.83298 -54.2231,17.83296 -17.833,54.22311 -17.8329,-54.22311 -54.2231,-17.83297 54.2231,-17.83297 z"
         transform="translate(191.04804,197.59825)"
         inkscape:label="estrela direita" /><path
         sodipodi:type="star"
         style="display:inline;opacity:1;fill:#fff898;fill-opacity:1;fill-rule:evenodd;stroke:none;stroke-width:40;stroke-linecap:round;stroke-dasharray:none;stroke-opacity:1;paint-order:stroke fill markers"
         id="path240"
         inkscape:flatsided="false"
         sodipodi:sides="4"
         sodipodi:cx="1204.5125"
         sodipodi:cy="469.79623"
         sodipodi:r1="72.056076"
         sodipodi:r2="25.219627"
         sodipodi:arg1="-1.5707963"
         sodipodi:arg2="-0.78539816"
         inkscape:rounded="0"
         inkscape:randomized="0"
         d="m 1204.5125,397.74016 17.8329,54.2231 54.2231,17.83298 -54.2231,17.83296 -17.833,54.22311 -17.8329,-54.22311 -54.2231,-17.83297 54.2231,-17.83297 z"
         transform="translate(-2.5473022,536.754)"
         inkscape:label="estrela baixo" /></g></g></svg>
